# xmcd
#
# Track frame offsets: 
#        150
#        18872
#        41341
#        58953
#        77635
#        100108
#
# Disc length: 1565 seconds
#
# Revision: 1
# Processed by: cddbd v1.5.2PL0 Copyright (c) Steve Scherf et al.
# Submitted via: ExactAudioCopy v1.0b3
#
DISCID=3e061b06
DTITLE=岩佐美咲 - もしも私が空に住んでいたら [通常盤] 
DYEAR=2013
DGENRE=JPop
TTITLE0=もしも私が空に住んでいたら
TTITLE1=フライングゲット〈演歌バージョン〉 (オリジナル・アーティスト: AKB48) 
TTITLE2=津軽海峡・冬景色 (オリジナル・アーティスト: 石川さゆり) 
TTITLE3=もしも私が空に住んでいたら (カラオケ) 
TTITLE4=フライングゲット〈演歌バージョン〉 (カラオケ) 
TTITLE5=津軽海峡・冬景色 (カラオケ) 
EXTD=
EXTT0=
EXTT1=
EXTT2=
EXTT3=
EXTT4=
EXTT5=
PLAYORDER=
